<svg width="49" height="48" viewBox="0 0 49 48" fill="none" xmlns="http://www.w3.org/2000/svg">
<g clip-path="url(#clip0_1_40)">
<path d="M19.0136 27.4255H16.4338C15.5034 27.4255 14.7465 28.218 14.7465 29.1922V34.9152C14.7465 35.5134 15.2114 36.0002 15.7827 36.0002H19.6646C20.236 36.0002 20.7009 35.5134 20.7009 34.9152V29.1922C20.7009 28.218 19.944 27.4255 19.0136 27.4255Z" fill="#232536"/>
<path d="M26.5861 23.9491H24.0063C23.076 23.9491 22.319 24.7417 22.319 25.7158V34.9147C22.319 35.5129 22.7839 35.9997 23.3553 35.9997H27.2372C27.8086 35.9997 28.2734 35.5129 28.2734 34.9147V25.7158C28.2734 24.7416 27.5165 23.9491 26.5861 23.9491Z" fill="#232536"/>
<path d="M34.2998 19.9888H31.72C30.7897 19.9888 30.0328 20.7814 30.0328 21.7555V34.9149C30.0328 35.5131 30.4976 35.9998 31.069 35.9998H34.9509C35.5223 35.9998 35.9871 35.5131 35.9871 34.9149V21.7555C35.9871 20.7814 35.2302 19.9888 34.2998 19.9888Z" fill="#232536"/>
<path d="M32.2457 12.6682C31.9301 12.2012 31.4169 11.9542 30.8727 12.0065L26.0001 12.4785C25.456 12.5313 24.9948 12.873 24.7664 13.3927C24.538 13.9124 24.59 14.5016 24.9056 14.9686L25.1776 15.3711L19.1299 19.7468L19.1237 19.7514C18.6945 20.0693 18.4094 20.5433 18.3207 21.0859C18.232 21.6284 18.3504 22.1747 18.654 22.624C18.9577 23.0733 19.4103 23.372 19.9285 23.4649C20.0408 23.485 20.1532 23.495 20.2648 23.495C20.667 23.495 21.0588 23.3658 21.3941 23.1184L27.4515 18.7358L27.7323 19.1511C28.0199 19.5767 28.4715 19.8199 28.9611 19.8199C29.0088 19.8199 29.0569 19.8175 29.1053 19.8129C29.6494 19.7601 30.1107 19.4184 30.3391 18.8986L32.385 14.2442C32.6134 13.7244 32.5614 13.1352 32.2457 12.6682Z" fill="#FFD050"/>
</g>
<defs>
<clipPath id="clip0_1_40">
<rect width="22.9207" height="24" fill="white" transform="translate(13.9064 12)"/>
</clipPath>
</defs>
</svg>
