<svg width="49" height="48" viewBox="0 0 49 48" fill="none" xmlns="http://www.w3.org/2000/svg">
<rect x="0.950104" width="47.9251" height="48" rx="10" fill="#FBF6EA"/>
<g clip-path="url(#clip0_1_56)">
<path d="M18.7728 18.2115L16.7832 18.3655C16.2296 18.4083 15.7366 18.6989 15.4304 19.1628L13.136 22.6384C12.9038 22.9902 12.8669 23.4303 13.0372 23.816C13.2075 24.2016 13.5576 24.4703 13.9736 24.5348L15.7952 24.8174C16.2213 22.5524 17.2414 20.2931 18.7728 18.2115Z" fill="#FFD050"/>
<path d="M23.0984 32.1316L23.3805 33.956C23.445 34.3727 23.7133 34.7233 24.0982 34.8939C24.2584 34.9648 24.4279 34.9999 24.5966 34.9999C24.8336 34.9999 25.0689 34.9308 25.274 34.7949L28.7443 32.4969C29.2074 32.1902 29.4975 31.6964 29.5402 31.142L29.6939 29.1494C27.6156 30.6831 25.3598 31.7048 23.0984 32.1316Z" fill="#FFD050"/>
<path d="M22.4133 30.8667C22.4765 30.8667 22.5401 30.8614 22.6036 30.8508C23.551 30.6922 24.4642 30.4249 25.3353 30.075L17.8483 22.5763C17.499 23.4487 17.2321 24.3633 17.0737 25.3123C17.0112 25.6863 17.1365 26.0674 17.4042 26.3356L21.5819 30.5198C21.8042 30.7424 22.1042 30.8667 22.4133 30.8667Z" fill="#FFD050"/>
<path d="M34.0645 22.1973C35.8966 18.6497 35.9645 14.9007 35.8687 13.1425C35.8359 12.54 35.3564 12.0597 34.7548 12.0269C34.469 12.0113 34.1302 12 33.7484 12C31.7854 12 28.6794 12.2978 25.7141 13.834C23.3575 15.0548 20.2674 17.7429 18.4443 21.2757C18.4658 21.2925 18.4868 21.3104 18.5067 21.3302L26.5799 29.4161C26.5997 29.436 26.6176 29.457 26.6344 29.4786C30.1616 27.6525 32.8455 24.5576 34.0645 22.1973ZM26.2836 16.8623C27.5951 15.5488 29.7292 15.5486 31.0408 16.8623C31.6762 17.4986 32.0261 18.3447 32.0261 19.2446C32.0261 20.1445 31.6762 20.9906 31.0408 21.627C30.3851 22.2837 29.5235 22.6121 28.6622 22.6122C27.8007 22.6122 26.9395 22.2838 26.2836 21.627C25.6483 20.9906 25.2983 20.1445 25.2983 19.2446C25.2983 18.3447 25.6483 17.4986 26.2836 16.8623Z" fill="#232536"/>
<path d="M27.235 20.674C28.0219 21.4622 29.3024 21.4622 30.0894 20.674C30.4706 20.2922 30.6805 19.7846 30.6805 19.2446C30.6805 18.7047 30.4706 18.197 30.0894 17.8152C29.6959 17.4211 29.179 17.2241 28.6622 17.2241C28.1453 17.2241 27.6285 17.4211 27.235 17.8152C26.8538 18.197 26.6438 18.7047 26.6438 19.2446C26.6438 19.7846 26.8538 20.2922 27.235 20.674Z" fill="#232536"/>
<path d="M13.6178 30.954C13.79 30.954 13.9622 30.8882 14.0935 30.7566L16.29 28.5566C16.5528 28.2935 16.5528 27.8668 16.29 27.6037C16.0273 27.3405 15.6013 27.3405 15.3386 27.6037L13.142 29.8036C12.8793 30.0668 12.8793 30.4934 13.142 30.7566C13.2734 30.8881 13.4456 30.954 13.6178 30.954Z" fill="#FFD050"/>
<path d="M18.3031 29.6201C18.0404 29.3569 17.6144 29.3569 17.3516 29.6201L13.1286 33.8497C12.8659 34.1129 12.8659 34.5395 13.1286 34.8026C13.26 34.9342 13.4322 35 13.6043 35C13.7765 35 13.9487 34.9342 14.08 34.8026L18.303 30.573C18.5658 30.3099 18.5658 29.8832 18.3031 29.6201Z" fill="#FFD050"/>
<path d="M19.3645 31.6359L17.168 33.8359C16.9053 34.099 16.9053 34.5256 17.168 34.7888C17.2994 34.9204 17.4716 34.9862 17.6437 34.9862C17.8158 34.9862 17.9881 34.9204 18.1194 34.7888L20.3159 32.5888C20.5787 32.3257 20.5787 31.8991 20.3159 31.6359C20.0532 31.3727 19.6272 31.3727 19.3645 31.6359Z" fill="#FFD050"/>
</g>
<defs>
<clipPath id="clip0_1_56">
<rect width="22.9641" height="23" fill="white" transform="translate(12.9314 12)"/>
</clipPath>
</defs>
</svg>
