<svg width="49" height="48" viewBox="0 0 49 48" fill="none" xmlns="http://www.w3.org/2000/svg">
<g clip-path="url(#clip0_1_32)">
<path d="M27.8878 19.0312C27.8878 19.8065 28.5178 20.4375 29.2918 20.4375H33.4657C33.3899 19.4479 33.1607 18.5021 32.7941 17.625H29.2918C28.5178 17.625 27.8878 18.256 27.8878 19.0312Z" fill="#232536"/>
<path d="M18.7614 36H27.1857C27.5737 36 27.8877 35.6855 27.8877 35.2969V31.6875H29.2918V27.1172L22.2719 21.8438H15.9532C15.5652 21.8438 15.2512 22.1582 15.2512 22.5469C15.2512 25.0373 16.2707 27.4228 18.0593 29.1428V35.2969C18.0593 35.6855 18.3733 36 18.7614 36Z" fill="#FFD050"/>
<path d="M24.3785 12C23.9905 12 23.6765 12.3145 23.6765 12.7031V13.4062H20.739C20.4483 12.5896 19.6763 12 18.7623 12C17.6009 12 16.6562 12.9462 16.6562 14.1094C16.6562 15.2725 17.6009 16.2188 18.7623 16.2188C19.6763 16.2188 20.4483 15.6292 20.739 14.8125H23.6765V17.625H16.5269C16.2361 16.8083 15.4641 16.2188 14.5501 16.2188C13.3888 16.2188 12.3972 17.165 12.3972 18.3281C12.3972 19.4913 13.3888 20.4375 14.5501 20.4375C15.4641 20.4375 16.2361 19.8479 16.5269 19.0312H23.6765V21.141L30.4157 26.2033C30.5925 26.3358 30.6967 26.5445 30.6967 26.7656V31.6875H31.3988C32.5601 31.6875 33.5049 30.7413 33.5049 29.5781V26.0625H35.6577C35.9169 26.0625 36.1548 25.9197 36.2768 25.691C36.3988 25.4624 36.3851 25.185 36.2419 24.9693L34.1146 21.8438H29.2927C27.744 21.8438 26.4846 20.5824 26.4846 19.0312C26.4846 17.4801 27.744 16.2188 29.2927 16.2188H32.0543C30.4299 13.6865 27.6006 12 24.3785 12V12Z" fill="#232536"/>
</g>
<defs>
<clipPath id="clip0_1_32">
<rect width="23.9626" height="24" fill="white" transform="translate(12.3962 12)"/>
</clipPath>
</defs>
</svg>
